<svg width="64" height="64" viewBox="0 0 64 64" fill="none" xmlns="http://www.w3.org/2000/svg">
<path d="M10.6666 55.9999C9.19992 55.9999 7.94392 55.4773 6.89859 54.4319C5.85326 53.3866 5.33148 52.1315 5.33326 50.6666V21.3333C5.33326 19.8666 5.85592 18.6106 6.90126 17.5653C7.94659 16.5199 9.2017 15.9981 10.6666 15.9999H21.3333V10.6666C21.3333 9.19992 21.8559 7.94392 22.9013 6.89859C23.9466 5.85326 25.2017 5.33148 26.6666 5.33326H37.3333C38.7999 5.33326 40.0559 5.85592 41.1013 6.90126C42.1466 7.94659 42.6684 9.2017 42.6666 10.6666V15.9999H53.3333C54.7999 15.9999 56.0559 16.5226 57.1013 17.5679C58.1466 18.6133 58.6684 19.8684 58.6666 21.3333V50.6666C58.6666 52.1333 58.1439 53.3893 57.0986 54.4346C56.0533 55.4799 54.7981 56.0017 53.3333 55.9999H10.6666ZM26.6666 15.9999H37.3333V10.6666H26.6666V15.9999Z" fill="#F54C1E"/>
</svg>
