<svg width="64" height="64" viewBox="0 0 64 64" fill="none" xmlns="http://www.w3.org/2000/svg">
<path fill-rule="evenodd" clip-rule="evenodd" d="M37.9999 6.66667C37.9999 6.48986 37.9297 6.32029 37.8047 6.19526C37.6796 6.07024 37.5101 6 37.3333 6H18.6666C16.7217 6 14.8564 6.77262 13.4811 8.14788C12.1059 9.52315 11.3333 11.3884 11.3333 13.3333V50.6667C11.3333 52.6116 12.1059 54.4769 13.4811 55.8521C14.8564 57.2274 16.7217 58 18.6666 58H45.3332C47.2782 58 49.1434 57.2274 50.5187 55.8521C51.894 54.4769 52.6666 52.6116 52.6666 50.6667V24.392C52.6666 24.2152 52.5963 24.0456 52.4713 23.9206C52.3463 23.7956 52.1767 23.7253 51.9999 23.7253H39.9999C39.4695 23.7253 38.9608 23.5146 38.5857 23.1395C38.2106 22.7645 37.9999 22.2558 37.9999 21.7253V6.66667ZM39.9999 32.6667C40.5303 32.6667 41.0391 32.8774 41.4141 33.2525C41.7892 33.6275 41.9999 34.1362 41.9999 34.6667C41.9999 35.1971 41.7892 35.7058 41.4141 36.0809C41.0391 36.456 40.5303 36.6667 39.9999 36.6667H23.9999C23.4695 36.6667 22.9608 36.456 22.5857 36.0809C22.2106 35.7058 21.9999 35.1971 21.9999 34.6667C21.9999 34.1362 22.2106 33.6275 22.5857 33.2525C22.9608 32.8774 23.4695 32.6667 23.9999 32.6667H39.9999ZM39.9999 43.3333C40.5303 43.3333 41.0391 43.544 41.4141 43.9191C41.7892 44.2942 41.9999 44.8029 41.9999 45.3333C41.9999 45.8638 41.7892 46.3725 41.4141 46.7476C41.0391 47.1226 40.5303 47.3333 39.9999 47.3333H23.9999C23.4695 47.3333 22.9608 47.1226 22.5857 46.7476C22.2106 46.3725 21.9999 45.8638 21.9999 45.3333C21.9999 44.8029 22.2106 44.2942 22.5857 43.9191C22.9608 43.544 23.4695 43.3333 23.9999 43.3333H39.9999Z" fill="#F54C1E"/>
<path d="M42 7.53063C42 7.03997 42.5147 6.72797 42.896 7.03463C43.2187 7.29597 43.5093 7.59997 43.7573 7.94663L51.792 19.1386C51.9733 19.3946 51.776 19.7253 51.4613 19.7253H42.6667C42.4899 19.7253 42.3203 19.6551 42.1953 19.53C42.0702 19.405 42 19.2354 42 19.0586V7.53063Z" fill="#F54C1E"/>
</svg>
